<svg width="34" height="34" viewBox="0 0 34 34" fill="none" xmlns="http://www.w3.org/2000/svg">
<path d="M12.4809 2.83325L7.35254 7.97575" stroke="white" stroke-width="1.5" stroke-miterlimit="10" stroke-linecap="round" stroke-linejoin="round"/>
<path d="M21.5193 2.83325L26.6476 7.97575" stroke="white" stroke-width="1.5" stroke-miterlimit="10" stroke-linecap="round" stroke-linejoin="round"/>
<path d="M2.83325 11.1209C2.83325 8.5001 4.23575 8.2876 5.97825 8.2876H28.0216C29.7641 8.2876 31.1666 8.5001 31.1666 11.1209C31.1666 14.1668 29.7641 13.9543 28.0216 13.9543H5.97825C4.23575 13.9543 2.83325 14.1668 2.83325 11.1209Z" fill="white" stroke="white" stroke-width="1.5"/>
<path d="M4.95825 14.1667L6.95575 26.4067C7.40909 29.1551 8.49992 31.1667 12.5516 31.1667H21.0941C25.4999 31.1667 26.1516 29.2401 26.6616 26.5767L29.0416 14.1667" fill="white"/>
<path d="M4.95825 14.1667L6.95575 26.4067C7.40909 29.1551 8.49992 31.1667 12.5516 31.1667H21.0941C25.4999 31.1667 26.1516 29.2401 26.6616 26.5767L29.0416 14.1667" stroke="white" stroke-width="1.5" stroke-linecap="round"/>
<path d="M12.0417 20.1875C12.0417 22.9075 14.2801 25.1458 17.0001 25.1458C19.7201 25.1458 21.9584 22.9075 21.9584 20.1875" stroke="#FF6E2E" stroke-width="1.5" stroke-miterlimit="10" stroke-linecap="round" stroke-linejoin="round"/>
</svg>
