<svg width="53" height="53" viewBox="0 0 53 53" fill="none" xmlns="http://www.w3.org/2000/svg">
<g id="vuesax/linear/user-square">
<g id="user-square">
<path id="Vector" d="M33.1248 4.41675H19.8748C8.83317 4.41675 4.4165 8.83342 4.4165 19.8751V33.1251C4.4165 41.4726 6.934 46.0438 12.9407 47.7442C13.4265 42.0026 19.3228 37.4754 26.4998 37.4754C33.6769 37.4754 39.5732 42.0026 40.059 47.7442C46.0657 46.0438 48.5832 41.4726 48.5832 33.1251V19.8751C48.5832 8.83342 44.1665 4.41675 33.1248 4.41675ZM26.4998 31.2921C22.1273 31.2921 18.594 27.7368 18.594 23.3643C18.594 18.9918 22.1273 15.4584 26.4998 15.4584C30.8723 15.4584 34.4057 18.9918 34.4057 23.3643C34.4057 27.7368 30.8723 31.2921 26.4998 31.2921Z" fill="#393186" stroke="#393186" stroke-width="1.5" stroke-linecap="round" stroke-linejoin="round"/>
<rect id="Rectangle 41901" x="4" y="4" width="45" height="45" rx="12" fill="#393186"/>
</g>
</g>
</svg>
