<svg width="53" height="53" viewBox="0 0 53 53" fill="none" xmlns="http://www.w3.org/2000/svg">
<path d="M33.1248 4.41675H19.8748C8.83317 4.41675 4.4165 8.83342 4.4165 19.8751V33.1251C4.4165 41.4726 6.934 46.0438 12.9407 47.7442C13.4265 42.0026 19.3228 37.4754 26.4998 37.4754C33.6769 37.4754 39.5732 42.0026 40.059 47.7442C46.0657 46.0438 48.5832 41.4726 48.5832 33.1251V19.8751C48.5832 8.83342 44.1665 4.41675 33.1248 4.41675ZM26.4998 31.2921C22.1273 31.2921 18.594 27.7368 18.594 23.3643C18.594 18.9918 22.1273 15.4584 26.4998 15.4584C30.8723 15.4584 34.4057 18.9918 34.4057 23.3643C34.4057 27.7368 30.8723 31.2921 26.4998 31.2921Z" fill="#393186" stroke="#393186" stroke-width="1.5" stroke-linecap="round" stroke-linejoin="round"/>
<rect x="4" y="4" width="45" height="45" rx="12" fill="#393186"/>
<path d="M40.1665 19.2083H31.6665" stroke="white" stroke-width="1.5" stroke-miterlimit="10" stroke-linecap="round" stroke-linejoin="round"/>
<path d="M17.5002 19.2083H11.8335" stroke="white" stroke-width="1.5" stroke-miterlimit="10" stroke-linecap="round" stroke-linejoin="round"/>
<path d="M23.1668 24.1667C25.9052 24.1667 28.1252 21.9467 28.1252 19.2083C28.1252 16.4699 25.9052 14.25 23.1668 14.25C20.4284 14.25 18.2085 16.4699 18.2085 19.2083C18.2085 21.9467 20.4284 24.1667 23.1668 24.1667Z" stroke="white" stroke-width="1.5" stroke-miterlimit="10" stroke-linecap="round" stroke-linejoin="round"/>
<path d="M40.1667 34.7917H34.5" stroke="white" stroke-width="1.5" stroke-miterlimit="10" stroke-linecap="round" stroke-linejoin="round"/>
<path d="M20.3335 34.7917H11.8335" stroke="white" stroke-width="1.5" stroke-miterlimit="10" stroke-linecap="round" stroke-linejoin="round"/>
<path d="M28.8333 39.7499C31.5717 39.7499 33.7917 37.53 33.7917 34.7916C33.7917 32.0532 31.5717 29.8333 28.8333 29.8333C26.0949 29.8333 23.875 32.0532 23.875 34.7916C23.875 37.53 26.0949 39.7499 28.8333 39.7499Z" stroke="white" stroke-width="1.5" stroke-miterlimit="10" stroke-linecap="round" stroke-linejoin="round"/>
</svg>
