<svg width="34" height="34" viewBox="0 0 34 34" fill="none" xmlns="http://www.w3.org/2000/svg">
<path d="M31.1665 9.20825H22.6665" stroke="white" stroke-width="1.5" stroke-miterlimit="10" stroke-linecap="round" stroke-linejoin="round"/>
<path d="M8.50016 9.20825H2.8335" stroke="white" stroke-width="1.5" stroke-miterlimit="10" stroke-linecap="round" stroke-linejoin="round"/>
<path d="M14.1668 14.1667C16.9052 14.1667 19.1252 11.9467 19.1252 9.20833C19.1252 6.46992 16.9052 4.25 14.1668 4.25C11.4284 4.25 9.2085 6.46992 9.2085 9.20833C9.2085 11.9467 11.4284 14.1667 14.1668 14.1667Z" stroke="white" stroke-width="1.5" stroke-miterlimit="10" stroke-linecap="round" stroke-linejoin="round"/>
<path d="M31.1667 24.7917H25.5" stroke="white" stroke-width="1.5" stroke-miterlimit="10" stroke-linecap="round" stroke-linejoin="round"/>
<path d="M11.3335 24.7917H2.8335" stroke="white" stroke-width="1.5" stroke-miterlimit="10" stroke-linecap="round" stroke-linejoin="round"/>
<path d="M19.8333 29.7499C22.5717 29.7499 24.7917 27.53 24.7917 24.7916C24.7917 22.0532 22.5717 19.8333 19.8333 19.8333C17.0949 19.8333 14.875 22.0532 14.875 24.7916C14.875 27.53 17.0949 29.7499 19.8333 29.7499Z" stroke="white" stroke-width="1.5" stroke-miterlimit="10" stroke-linecap="round" stroke-linejoin="round"/>
</svg>
