<svg width="222" height="50" viewBox="0 0 222 50" fill="none" xmlns="http://www.w3.org/2000/svg">
<rect width="222" height="50" rx="25" fill="#161616"/>
<path d="M14 28.0806C14.9951 33.288 18.8094 37.5004 23.7847 39.0594C25.9738 36.4059 27.4996 31.8618 27.9639 27.6494C22.7565 29.0425 17.8144 29.142 14 28.0806Z" fill="#FBBE3E"/>
<path d="M19.105 19.7872C17.2475 21.0807 15.8876 22.5733 14.8926 23.9664C18.1431 24.5966 22.9857 24.2317 27.9278 22.6728C27.1981 18.3278 24.5446 15.9728 19.105 19.7872Z" fill="#FBBE3E"/>
<path d="M39.3047 16.3401C36.6844 13.0896 32.6378 11 28.1269 11C23.1849 11 18.8066 13.4876 16.2195 17.302C19.1051 15.6436 23.4502 13.7861 26.5017 15.2787C28.4255 16.2074 29.8517 18.6619 30.4156 21.7797C34.2299 20.254 37.3146 18.2971 39.3047 16.3401Z" fill="#FBBE3E"/>
<path d="M30.8853 26.7541C30.7858 26.7872 30.6863 26.8204 30.5868 26.8536C30.1556 30.9996 28.3645 35.5437 24.6165 39.3249C25.7442 39.5903 26.9051 39.7561 28.0991 39.7561C36.0264 39.7561 42.4611 33.3214 42.4611 25.361C42.4611 23.8021 42.1957 22.2763 41.7314 20.8501C38.9121 23.2051 35.164 25.2283 30.8853 26.7541Z" fill="#FBBE3E"/>
<path d="M62.5282 18.0997C62.2628 17.8675 61.9311 17.7349 61.5 17.7349H50.0569C49.6588 17.7349 49.294 17.8675 49.0286 18.0997C48.7633 18.3319 48.6306 18.6636 48.6306 19.0616C48.6306 19.4928 48.7633 19.8245 49.0286 20.0898C49.294 20.3552 49.6257 20.4878 50.0569 20.4878H54.4019V31.5661C54.4019 31.9973 54.5346 32.329 54.7999 32.5943C55.0653 32.8597 55.4301 32.9924 55.8282 32.9924C56.2262 32.9924 56.5579 32.8597 56.79 32.5943C57.0222 32.329 57.1549 31.9973 57.1549 31.5661V20.521H61.5C61.9311 20.521 62.2628 20.3883 62.5282 20.123C62.7935 19.8576 62.9262 19.4928 62.9262 19.0948C62.9262 18.6636 62.7935 18.3319 62.5282 18.0997Z" fill="#FBFBFB"/>
<path d="M144.851 18.0997C144.585 17.8675 144.254 17.7349 143.823 17.7349H132.379C131.981 17.7349 131.617 17.8675 131.351 18.0997C131.086 18.3319 130.953 18.6636 130.953 19.0616C130.953 19.4928 131.086 19.8245 131.351 20.0898C131.617 20.3552 131.948 20.4878 132.379 20.4878H136.725V31.5661C136.725 31.9973 136.857 32.329 137.123 32.5943C137.388 32.8597 137.753 32.9924 138.151 32.9924C138.549 32.9924 138.88 32.8597 139.113 32.5943C139.345 32.329 139.478 31.9973 139.478 31.5661V20.521H143.823C144.254 20.521 144.585 20.3883 144.851 20.123C145.116 19.8576 145.249 19.4928 145.249 19.0948C145.249 18.6636 145.116 18.3319 144.851 18.0997Z" fill="#FBFBFB"/>
<path d="M73.605 29.9061C72.8753 30.3704 72.0129 30.6026 71.0842 30.6026C70.1555 30.6026 69.3263 30.3704 68.5634 29.9061C67.8005 29.4417 67.2035 28.8447 66.7723 28.0486C66.3411 27.2526 66.1089 26.357 66.1089 25.3952C66.1089 24.4001 66.3411 23.5046 66.7723 22.7085C67.2035 21.9125 67.8005 21.2823 68.5634 20.8511C69.3263 20.3867 70.1555 20.1546 71.0842 20.1546C72.0461 20.1546 72.8753 20.3867 73.605 20.8511C74.3347 21.3154 74.9317 21.9125 75.3629 22.7085C75.7941 23.5046 75.9931 24.4001 75.9931 25.3952C75.9931 26.3902 75.7941 27.2526 75.3629 28.0486C74.9317 28.8115 74.3347 29.4417 73.605 29.9061ZM77.7179 21.415C77.0545 20.2541 76.1258 19.3253 74.9649 18.6288C73.804 17.9654 72.5104 17.6006 71.051 17.6006C69.5916 17.6006 68.2981 17.9323 67.1372 18.6288C65.9763 19.2922 65.0475 20.2209 64.3842 21.415C63.7208 22.5758 63.356 23.9026 63.356 25.362C63.356 26.8214 63.6545 28.1481 64.2847 29.309C64.9149 30.4699 65.7441 31.3986 66.8386 32.062C67.9 32.7254 69.1273 33.0902 70.4872 33.0902C71.8471 33.0902 73.0743 32.7585 74.1357 32.062C74.799 31.6308 75.3629 31.1333 75.8604 30.5363V31.5645C75.8604 31.9625 75.9931 32.3274 76.2585 32.5927C76.5238 32.858 76.8555 32.9907 77.2867 32.9907C77.6847 32.9907 78.0496 32.858 78.3149 32.5927C78.5802 32.3274 78.7129 31.9957 78.7129 31.5645V25.362C78.7461 23.9026 78.3812 22.5758 77.7179 21.415Z" fill="#FBFBFB"/>
<path d="M92.0426 29.7725C91.5782 30.1374 90.9812 30.3032 90.2183 30.3032H84.8119V26.2567H90.2183C90.948 26.2567 91.5782 26.4557 92.0426 26.8537C92.5069 27.2517 92.7391 27.7492 92.7391 28.3463C92.7391 28.9433 92.5069 29.4077 92.0426 29.7725ZM91.7441 20.8171C92.1089 21.1487 92.2748 21.5468 92.2748 22.0111C92.2748 22.575 92.1421 23.0393 91.8436 23.4042C91.5451 23.769 91.1802 23.9349 90.7158 23.9349H90.2847H88.0955H84.8119V20.3527H90.3842C90.948 20.3527 91.3792 20.5185 91.7441 20.8171ZM94.7956 26.4888C94.3644 25.8586 93.7342 25.3943 92.9381 25.0294C92.905 24.9963 92.8718 24.9963 92.8055 24.9631C93.104 24.7973 93.4025 24.6314 93.6678 24.3992C94.4639 23.7027 94.8951 22.8072 94.8951 21.7458C94.8951 20.9497 94.6961 20.2864 94.298 19.6562C93.9 19.0591 93.3693 18.5948 92.7059 18.2299C92.0426 17.8982 91.2465 17.6992 90.3842 17.6992H83.4188H83.3856C82.9876 17.6992 82.6559 17.8319 82.4237 18.0972C82.1584 18.3626 82.0257 18.6943 81.9926 19.0923V31.5636C81.9926 31.9616 82.1252 32.3265 82.3906 32.5918C82.6559 32.8572 82.9876 32.9899 83.4188 32.9899H90.2515C91.2797 32.9899 92.1753 32.7908 92.9713 32.426C93.7673 32.0611 94.3644 31.5304 94.8287 30.9002C95.2599 30.2369 95.4921 29.5072 95.4921 28.678C95.4589 27.8488 95.2267 27.119 94.7956 26.4888Z" fill="#FBFBFB"/>
<path d="M111.55 18.0972C111.285 17.8319 110.953 17.6992 110.522 17.6992C110.124 17.6992 109.759 17.8319 109.494 18.0972C109.229 18.3626 109.096 18.6943 109.096 19.1255V26.9864C109.096 27.6497 108.897 28.2468 108.532 28.8106C108.167 29.3413 107.67 29.7725 107.04 30.1042C106.409 30.4359 105.713 30.5686 104.917 30.5686C104.088 30.5686 103.325 30.4027 102.661 30.071C101.998 29.7394 101.467 29.2418 101.069 28.5785C100.671 27.9151 100.472 27.0527 100.472 25.9913V19.1255C100.472 18.7274 100.34 18.3626 100.074 18.0972C99.8089 17.8319 99.4772 17.6992 99.046 17.6992C98.648 17.6992 98.2831 17.8319 98.0178 18.0972C97.7524 18.3626 97.6198 18.6943 97.6198 19.1255V25.9913C97.6198 27.5171 97.9183 28.8438 98.4821 29.9052C99.0792 30.9666 99.8752 31.7626 100.87 32.3265C101.898 32.8904 103.026 33.1557 104.32 33.1557C105.58 33.1557 106.675 32.8904 107.637 32.3597C108.167 32.0611 108.632 31.7295 109.03 31.2983V31.5968C109.03 31.9948 109.162 32.3597 109.428 32.625C109.693 32.8904 110.025 33.023 110.456 33.023C110.887 33.023 111.219 32.8904 111.484 32.625C111.749 32.3597 111.882 32.028 111.882 31.5968V19.1586C111.948 18.6943 111.816 18.3626 111.55 18.0972Z" fill="#FBFBFB"/>
<path d="M125.41 29.9061C124.681 30.3704 123.818 30.6026 122.89 30.6026C121.961 30.6026 121.132 30.3704 120.369 29.9061C119.606 29.4417 119.009 28.8447 118.578 28.0486C118.147 27.2526 117.914 26.357 117.914 25.3952C117.914 24.4001 118.147 23.5046 118.578 22.7085C119.009 21.9125 119.606 21.2823 120.369 20.8511C121.132 20.3867 121.961 20.1546 122.89 20.1546C123.852 20.1546 124.681 20.3867 125.41 20.8511C126.14 21.3154 126.737 21.9125 127.168 22.7085C127.6 23.5046 127.799 24.4001 127.799 25.3952C127.799 26.3902 127.6 27.2526 127.168 28.0486C126.77 28.8115 126.173 29.4417 125.41 29.9061ZM129.523 21.415C128.86 20.2541 127.931 19.3253 126.77 18.6288C125.609 17.9654 124.316 17.6006 122.856 17.6006C121.397 17.6006 120.103 17.9323 118.943 18.6288C117.782 19.2922 116.853 20.2209 116.19 21.415C115.526 22.5758 115.161 23.9026 115.161 25.362C115.161 26.8214 115.46 28.1481 116.09 29.309C116.72 30.4699 117.55 31.3986 118.644 32.062C119.705 32.7254 120.933 33.0902 122.293 33.0902C123.652 33.0902 124.88 32.7585 125.941 32.062C126.604 31.6308 127.168 31.1333 127.666 30.5363V31.5645C127.666 31.9625 127.799 32.3274 128.064 32.5927C128.329 32.858 128.661 32.9907 129.092 32.9907C129.49 32.9907 129.855 32.858 130.12 32.5927C130.386 32.3274 130.518 31.9957 130.518 31.5645V25.362C130.552 23.9026 130.22 22.5758 129.523 21.415Z" fill="#FBFBFB"/>
<path d="M164.88 31.1353C165.942 31.1353 166.904 30.87 167.766 30.3724C168.628 29.8749 169.292 29.1784 169.789 28.316C170.287 27.4536 170.519 26.4586 170.519 25.364C170.519 24.2695 170.287 23.2744 169.789 22.412C169.292 21.5496 168.628 20.8531 167.766 20.3556C166.904 19.8581 165.942 19.5927 164.88 19.5927C163.819 19.5927 162.89 19.8581 162.028 20.3556C161.166 20.8531 160.502 21.5496 160.038 22.412C159.573 23.2744 159.308 24.2695 159.308 25.364C159.308 26.4586 159.54 27.4205 160.038 28.316C160.502 29.1784 161.199 29.8749 162.028 30.3724C162.89 30.87 163.819 31.1353 164.88 31.1353ZM158.313 37.8022C157.981 37.8022 157.716 37.7027 157.517 37.5036C157.318 37.3046 157.219 37.0393 157.219 36.7076V25.2645C157.252 23.8383 157.583 22.5115 158.247 21.3838C158.91 20.2229 159.839 19.3274 161 18.664C162.161 18.0006 163.454 17.6689 164.88 17.6689C166.373 17.6689 167.667 18.0006 168.827 18.664C169.988 19.3274 170.917 20.2561 171.58 21.417C172.244 22.5779 172.575 23.9046 172.575 25.364C172.575 26.8234 172.244 28.117 171.58 29.3111C170.917 30.4719 170.022 31.4007 168.894 32.064C167.766 32.7274 166.506 33.0591 165.079 33.0591C163.852 33.0591 162.724 32.7937 161.729 32.263C160.734 31.7323 159.905 31.0358 159.308 30.1734V36.7076C159.308 37.0393 159.209 37.3046 159.01 37.5036C158.877 37.7027 158.612 37.8022 158.313 37.8022Z" fill="#FBBE3E"/>
<path d="M184.62 17.9996C184.155 17.7674 183.492 17.6348 182.663 17.6348C181.601 17.6348 180.606 17.9001 179.744 18.3976C179.014 18.8288 178.417 19.3595 177.92 20.0561V18.8288C177.92 18.4971 177.82 18.2318 177.654 18.066C177.455 17.8669 177.223 17.8006 176.891 17.8006C176.56 17.8006 176.294 17.9001 176.129 18.066C175.929 18.265 175.863 18.4971 175.863 18.8288V31.8972C175.863 32.2289 175.963 32.4942 176.129 32.6601C176.328 32.8591 176.56 32.9254 176.891 32.9254C177.223 32.9254 177.488 32.8259 177.654 32.6601C177.853 32.461 177.92 32.2289 177.92 31.8972V23.6051C177.92 22.7427 178.152 21.9798 178.616 21.3496C179.08 20.7194 179.711 20.2551 180.54 19.9566C181.336 19.658 182.265 19.5585 183.293 19.6249C183.591 19.658 183.89 19.658 184.122 19.6912C184.387 19.7244 184.586 19.658 184.752 19.5917C184.918 19.4922 185.051 19.3264 185.117 19.0278C185.283 18.5635 185.084 18.2318 184.62 17.9996Z" fill="#FBBE3E"/>
<path d="M194.468 31.1343C195.529 31.1343 196.491 30.869 197.353 30.3714C198.216 29.8739 198.879 29.1774 199.343 28.315C199.808 27.4526 200.073 26.4576 200.073 25.363C200.073 24.2684 199.841 23.2734 199.343 22.3778C198.879 21.5155 198.182 20.8189 197.353 20.3214C196.491 19.8239 195.529 19.5585 194.468 19.5585C193.406 19.5585 192.444 19.8239 191.582 20.3214C190.719 20.8189 190.056 21.5155 189.559 22.3778C189.061 23.2402 188.829 24.2353 188.829 25.363C188.829 26.4907 189.061 27.4526 189.559 28.315C190.056 29.1774 190.719 29.8739 191.582 30.3714C192.411 30.869 193.373 31.1343 194.468 31.1343ZM194.468 33.0581C192.975 33.0581 191.681 32.7264 190.52 32.063C189.36 31.3997 188.431 30.4709 187.768 29.31C187.104 28.1491 186.772 26.8224 186.772 25.363C186.772 23.8704 187.104 22.5437 187.768 21.3828C188.431 20.2219 189.36 19.2932 190.52 18.6298C191.681 17.9664 193.008 17.6348 194.468 17.6348C195.96 17.6348 197.254 17.9664 198.415 18.6298C199.575 19.2932 200.471 20.2219 201.134 21.3828C201.798 22.5437 202.129 23.8704 202.163 25.363C202.163 26.8556 201.831 28.1491 201.168 29.31C200.504 30.4709 199.575 31.3997 198.415 32.063C197.254 32.7264 195.927 33.0581 194.468 33.0581Z" fill="#FBBE3E"/>
<path d="M164.516 37.8007C164.317 37.8007 164.118 37.7344 164.018 37.6017C163.919 37.469 163.819 37.3032 163.819 37.1042C163.819 36.9052 163.886 36.7062 164.018 36.6067C164.151 36.5072 164.317 36.4076 164.516 36.4076H202.394C204.716 36.4076 206.607 34.517 206.607 32.1953V18.5962C206.607 16.2744 204.716 14.3838 202.394 14.3838H156.954C154.632 14.3838 152.741 16.2744 152.741 18.5962V37.1042C152.741 37.3032 152.675 37.5022 152.542 37.6017C152.41 37.7344 152.244 37.8007 152.045 37.8007C151.846 37.8007 151.647 37.7344 151.547 37.6017C151.448 37.469 151.348 37.3032 151.348 37.1042V18.5962C151.348 15.5115 153.869 12.9907 156.954 12.9907H202.394C205.479 12.9907 208 15.5115 208 18.5962V32.1953C208 35.2799 205.479 37.8007 202.394 37.8007H164.516Z" fill="#FBBE3E"/>
</svg>
