<svg width="53" height="53" viewBox="0 0 53 53" fill="none" xmlns="http://www.w3.org/2000/svg">
<path d="M40.0592 47.7441C38.1159 48.3183 35.8192 48.5833 33.1251 48.5833H19.8751C17.1809 48.5833 14.8843 48.3183 12.9409 47.7441C13.4268 42.0025 19.323 37.4753 26.5001 37.4753C33.6772 37.4753 39.5734 42.0025 40.0592 47.7441Z" stroke="white" stroke-width="1.5" stroke-linecap="round" stroke-linejoin="round"/>
<path d="M33.1251 4.41675H19.8751C8.83341 4.41675 4.41675 8.83342 4.41675 19.8751V33.1251C4.41675 41.4726 6.93425 46.0438 12.9409 47.7442C13.4267 42.0026 19.323 37.4754 26.5001 37.4754C33.6772 37.4754 39.5734 42.0026 40.0592 47.7442C46.0659 46.0438 48.5834 41.4726 48.5834 33.1251V19.8751C48.5834 8.83342 44.1667 4.41675 33.1251 4.41675ZM26.5001 31.2921C22.1276 31.2921 18.5942 27.7368 18.5942 23.3643C18.5942 18.9918 22.1276 15.4584 26.5001 15.4584C30.8726 15.4584 34.4059 18.9918 34.4059 23.3643C34.4059 27.7368 30.8726 31.2921 26.5001 31.2921Z" fill="#393186" stroke="#393186" stroke-width="1.5" stroke-linecap="round" stroke-linejoin="round"/>
<path d="M34.4059 23.3641C34.4059 27.7366 30.8726 31.292 26.5001 31.292C22.1276 31.292 18.5942 27.7366 18.5942 23.3641C18.5942 18.9916 22.1276 15.4583 26.5001 15.4583C30.8726 15.4583 34.4059 18.9916 34.4059 23.3641Z" stroke="white" stroke-width="1.5" stroke-linecap="round" stroke-linejoin="round"/>
</svg>
