<svg width="28" height="28" viewBox="0 0 28 28" fill="none" xmlns="http://www.w3.org/2000/svg">
<path fill-rule="evenodd" clip-rule="evenodd" d="M14 4.12812C11.8383 4.12812 10.086 5.86924 10.086 8.01701C10.086 10.1648 11.8383 11.9059 14 11.9059C16.1616 11.9059 17.9139 10.1648 17.9139 8.01701C17.9139 5.86924 16.1616 4.12812 14 4.12812ZM8.27953 8.01701C8.27953 4.87796 10.8407 2.33325 14 2.33325C17.1593 2.33325 19.7204 4.87796 19.7204 8.01701C19.7204 11.1561 17.1593 13.7008 14 13.7008C10.8407 13.7008 8.27953 11.1561 8.27953 8.01701Z" fill="black"/>
<path fill-rule="evenodd" clip-rule="evenodd" d="M11.0438 17.8888C8.51947 17.8888 6.47308 19.9221 6.47308 22.4303C6.47308 22.562 6.4973 22.6549 6.5227 22.7091C6.54414 22.7548 6.56253 22.7677 6.57787 22.776C7.27981 23.1556 9.24791 23.8717 14 23.8717C18.752 23.8717 20.7201 23.1556 21.422 22.776C21.4374 22.7677 21.4558 22.7548 21.4772 22.7091C21.5026 22.6549 21.5268 22.562 21.5268 22.4303C21.5268 19.9221 19.4804 17.8888 16.9561 17.8888H11.0438ZM4.66663 22.4303C4.66663 18.9308 7.5218 16.0939 11.0438 16.0939H16.9561C20.4781 16.0939 23.3333 18.9308 23.3333 22.4303C23.3333 23.0727 23.0992 23.9126 22.2855 24.3526C21.2076 24.9354 18.8951 25.6666 14 25.6666C9.10479 25.6666 6.79236 24.9354 5.71443 24.3526C4.9007 23.9126 4.66663 23.0727 4.66663 22.4303Z" fill="black"/>
</svg>
